<svg width="33" height="21" viewBox="0 0 33 21" fill="none" xmlns="http://www.w3.org/2000/svg">
<path fill-rule="evenodd" clip-rule="evenodd" d="M16.1497 0.554688C16.2304 1.44395 16.4723 3.38417 17.682 5.32439C18.8111 7.10292 20.1014 8.07303 20.9079 8.55808C17.7627 8.55808 14.6175 8.55808 11.3916 8.55808C12.1981 8.07303 13.4884 7.10292 14.6175 5.32439C15.8272 3.38417 16.0691 1.44395 16.1497 0.554688ZM32.1983 3.78838V12.9236H19.6982C19.6982 12.9236 30.908 12.1151 32.1983 3.78838ZM0.0205078 3.78838C1.31085 12.1151 12.5207 12.9236 12.5207 12.9236H0.0205078V3.78838ZM0.0205078 20.0377V16.8848H32.1983V20.0377H0.0205078Z" fill="white"/>
</svg>
