<svg width="44" height="28" viewBox="0 0 44 28" fill="none" xmlns="http://www.w3.org/2000/svg">
<path fill-rule="evenodd" clip-rule="evenodd" d="M31.3979 27.1706H32.1274L44.0007 0.66748H43.2668L31.3979 27.1706ZM25.2324 9.64062H26.6914L27.8735 12.1675H28.748L27.4561 9.48242C28.1768 9.24512 28.6382 8.56396 28.6382 7.7334C28.6382 6.55566 27.8516 5.82617 26.5947 5.82617H24.4678V12.1675H25.2324V9.64062ZM25.2324 8.98584V6.51611H26.5244C27.3726 6.51611 27.856 6.96436 27.856 7.75098C27.856 8.54199 27.3638 8.98584 26.4893 8.98584H25.2324ZM22.3193 11.4556V12.1675H18.5752V5.82617H22.3193V6.53809H19.353V8.59473H22.1567V9.27588H19.353V11.4556H22.3193ZM13.856 12.1675H14.6294V6.53809H16.5454V5.82617H11.9399V6.53809H13.856V12.1675ZM6.72852 12.1675H6.02979V5.82617H6.77246L9.48828 10.7612H9.5498V5.82617H10.2485V12.1675H9.51465L6.79004 7.21924H6.72852V12.1675ZM4.00879 12.1675V11.4556H1.04248V9.27588H3.84619V8.59473H1.04248V6.53809H4.00879V5.82617H0.264648V12.1675H4.00879Z" fill="white"/>
</svg>
